<svg id="svg" version="1.1" width="2000" height="2000" xmlns="http://www.w3.org/2000/svg" xmlns:xlink="http://www.w3.org/1999/xlink" style="display: block;"><g id="svgg"><path id="path0" d="" stroke="none" fill="#000000" fill-rule="evenodd"></path><path id="path1" d="" stroke="none" fill="#2a2a2a" fill-rule="evenodd"></path><path id="path2" d="M225.800 199.399 L 225.800 369.800 255.760 369.800 C 278.796 369.800,285.775 369.745,285.960 369.560 C 286.146 369.374,286.200 353.196,286.200 297.960 L 286.200 226.600 312.400 226.600 L 338.600 226.600 338.600 297.914 C 338.600 359.453,338.639 369.268,338.886 369.514 C 339.276 369.904,398.771 369.949,399.160 369.560 C 399.346 369.374,399.400 331.240,399.400 199.160 L 399.400 29.000 369.240 29.000 C 346.049 29.000,339.025 29.055,338.840 29.240 C 338.654 29.426,338.600 45.293,338.600 99.440 L 338.600 169.400 312.400 169.400 L 286.201 169.400 286.150 99.250 L 286.100 29.100 255.950 29.049 L 225.800 28.999 225.800 199.399 " stroke="none" fill="#bd5d38" fill-rule="evenodd"></path><path id="path3" d="M56.334 29.133 C 56.260 29.206,56.200 29.561,56.200 29.922 C 56.200 30.282,56.110 30.632,56.000 30.700 C 55.890 30.768,55.800 31.353,55.800 32.000 C 55.800 32.647,55.710 33.232,55.600 33.300 C 55.490 33.368,55.400 33.908,55.400 34.500 C 55.400 35.092,55.310 35.632,55.200 35.700 C 55.090 35.768,55.000 36.295,55.000 36.872 C 55.000 37.448,54.918 38.006,54.818 38.110 C 54.717 38.215,54.587 38.795,54.528 39.400 C 54.468 40.005,54.321 41.085,54.200 41.800 C 54.079 42.515,53.932 43.595,53.872 44.200 C 53.813 44.805,53.683 45.386,53.582 45.490 C 53.482 45.595,53.400 46.152,53.400 46.728 C 53.400 47.305,53.310 47.832,53.200 47.900 C 53.090 47.968,53.000 48.508,53.000 49.100 C 53.000 49.692,52.910 50.232,52.800 50.300 C 52.690 50.368,52.600 50.908,52.600 51.500 C 52.600 52.092,52.510 52.632,52.400 52.700 C 52.290 52.768,52.200 53.308,52.200 53.900 C 52.200 54.492,52.110 55.032,52.000 55.100 C 51.890 55.168,51.800 55.708,51.800 56.300 C 51.800 56.892,51.710 57.432,51.600 57.500 C 51.490 57.568,51.400 58.153,51.400 58.800 C 51.400 59.447,51.310 60.032,51.200 60.100 C 51.090 60.168,51.000 60.708,51.000 61.300 C 51.000 61.892,50.910 62.432,50.800 62.500 C 50.690 62.568,50.600 63.095,50.600 63.672 C 50.600 64.248,50.518 64.806,50.418 64.910 C 50.317 65.015,50.187 65.595,50.128 66.200 C 50.068 66.805,49.926 67.862,49.810 68.550 C 49.695 69.237,49.505 70.362,49.390 71.050 C 49.274 71.737,49.132 72.795,49.072 73.400 C 49.013 74.005,48.883 74.585,48.782 74.690 C 48.682 74.794,48.600 75.352,48.600 75.928 C 48.600 76.505,48.510 77.032,48.400 77.100 C 48.290 77.168,48.200 77.708,48.200 78.300 C 48.200 78.892,48.110 79.432,48.000 79.500 C 47.890 79.568,47.800 80.108,47.800 80.700 C 47.800 81.292,47.710 81.832,47.600 81.900 C 47.490 81.968,47.400 82.508,47.400 83.100 C 47.400 83.692,47.310 84.232,47.200 84.300 C 47.090 84.368,47.000 84.953,47.000 85.600 C 47.000 86.247,46.910 86.832,46.800 86.900 C 46.690 86.968,46.600 87.508,46.600 88.100 C 46.600 88.692,46.510 89.232,46.400 89.300 C 46.290 89.368,46.200 89.895,46.200 90.472 C 46.200 91.048,46.118 91.606,46.018 91.710 C 45.917 91.815,45.787 92.395,45.728 93.000 C 45.668 93.605,45.526 94.663,45.410 95.350 C 45.295 96.037,45.105 97.162,44.990 97.850 C 44.874 98.538,44.732 99.595,44.672 100.200 C 44.613 100.805,44.483 101.386,44.382 101.490 C 44.282 101.595,44.200 102.152,44.200 102.728 C 44.200 103.305,44.110 103.832,44.000 103.900 C 43.890 103.968,43.800 104.508,43.800 105.100 C 43.800 105.692,43.710 106.232,43.600 106.300 C 43.490 106.368,43.400 106.908,43.400 107.500 C 43.400 108.092,43.310 108.632,43.200 108.700 C 43.090 108.768,43.000 109.308,43.000 109.900 C 43.000 110.492,42.910 111.032,42.800 111.100 C 42.690 111.168,42.600 111.708,42.600 112.300 C 42.600 112.892,42.510 113.432,42.400 113.500 C 42.290 113.568,42.200 114.153,42.200 114.800 C 42.200 115.447,42.110 116.032,42.000 116.100 C 41.890 116.168,41.800 116.695,41.800 117.272 C 41.800 117.848,41.718 118.405,41.618 118.510 C 41.517 118.614,41.387 119.195,41.328 119.800 C 41.268 120.405,41.126 121.463,41.010 122.150 C 40.895 122.838,40.705 123.963,40.590 124.650 C 40.474 125.338,40.332 126.395,40.272 127.000 C 40.213 127.605,40.083 128.186,39.982 128.290 C 39.882 128.395,39.800 128.952,39.800 129.528 C 39.800 130.105,39.710 130.632,39.600 130.700 C 39.490 130.768,39.400 131.308,39.400 131.900 C 39.400 132.492,39.310 133.032,39.200 133.100 C 39.090 133.168,39.000 133.708,39.000 134.300 C 39.000 134.892,38.910 135.432,38.800 135.500 C 38.690 135.568,38.600 136.108,38.600 136.700 C 38.600 137.292,38.510 137.832,38.400 137.900 C 38.290 137.968,38.200 138.508,38.200 139.100 C 38.200 139.692,38.110 140.232,38.000 140.300 C 37.890 140.368,37.800 140.953,37.800 141.600 C 37.800 142.247,37.710 142.832,37.600 142.900 C 37.490 142.968,37.400 143.508,37.400 144.100 C 37.400 144.692,37.310 145.232,37.200 145.300 C 37.090 145.368,37.000 145.895,37.000 146.472 C 37.000 147.048,36.918 147.605,36.818 147.710 C 36.717 147.814,36.587 148.395,36.528 149.000 C 36.468 149.605,36.321 150.685,36.200 151.400 C 36.079 152.115,35.932 153.195,35.872 153.800 C 35.813 154.405,35.683 154.986,35.582 155.090 C 35.482 155.195,35.400 155.752,35.400 156.328 C 35.400 156.905,35.310 157.432,35.200 157.500 C 35.090 157.568,35.000 158.108,35.000 158.700 C 35.000 159.292,34.910 159.832,34.800 159.900 C 34.690 159.968,34.600 160.508,34.600 161.100 C 34.600 161.692,34.510 162.232,34.400 162.300 C 34.290 162.368,34.200 162.908,34.200 163.500 C 34.200 164.092,34.110 164.632,34.000 164.700 C 33.890 164.768,33.800 165.308,33.800 165.900 C 33.800 166.492,33.710 167.032,33.600 167.100 C 33.490 167.168,33.400 167.753,33.400 168.400 C 33.400 169.047,33.310 169.632,33.200 169.700 C 33.090 169.768,33.000 170.308,33.000 170.900 C 33.000 171.492,32.910 172.032,32.800 172.100 C 32.690 172.168,32.600 172.695,32.600 173.272 C 32.600 173.848,32.518 174.406,32.418 174.510 C 32.317 174.615,32.187 175.195,32.128 175.800 C 32.068 176.405,31.926 177.463,31.810 178.150 C 31.695 178.838,31.505 179.963,31.390 180.650 C 31.274 181.338,31.132 182.395,31.072 183.000 C 31.013 183.605,30.883 184.185,30.782 184.290 C 30.682 184.394,30.600 184.952,30.600 185.528 C 30.600 186.105,30.510 186.632,30.400 186.700 C 30.290 186.768,30.200 187.308,30.200 187.900 C 30.200 188.492,30.110 189.032,30.000 189.100 C 29.890 189.168,29.800 189.708,29.800 190.300 C 29.800 190.892,29.710 191.432,29.600 191.500 C 29.490 191.568,29.400 192.108,29.400 192.700 C 29.400 193.292,29.310 193.832,29.200 193.900 C 29.090 193.968,29.000 194.553,29.000 195.200 C 29.000 195.847,28.910 196.432,28.800 196.500 C 28.690 196.568,28.600 197.108,28.600 197.700 C 28.600 198.292,28.510 198.832,28.400 198.900 C 28.290 198.968,28.200 199.495,28.200 200.072 C 28.200 200.648,28.118 201.206,28.018 201.310 C 27.917 201.415,27.787 201.995,27.728 202.600 C 27.668 203.205,27.526 204.263,27.410 204.950 C 27.295 205.638,27.105 206.763,26.990 207.450 C 26.874 208.138,26.732 209.195,26.672 209.800 C 26.613 210.405,26.483 210.985,26.382 211.090 C 26.282 211.194,26.200 211.752,26.200 212.328 C 26.200 212.905,26.110 213.432,26.000 213.500 C 25.890 213.568,25.800 214.108,25.800 214.700 C 25.800 215.292,25.710 215.832,25.600 215.900 C 25.490 215.968,25.400 216.508,25.400 217.100 C 25.400 217.692,25.310 218.232,25.200 218.300 C 25.090 218.368,25.000 218.908,25.000 219.500 C 25.000 220.092,24.910 220.632,24.800 220.700 C 24.690 220.768,24.600 221.308,24.600 221.900 C 24.600 222.492,24.510 223.032,24.400 223.100 C 24.290 223.168,24.200 223.753,24.200 224.400 C 24.200 225.047,24.110 225.632,24.000 225.700 C 23.890 225.768,23.800 226.295,23.800 226.872 C 23.800 227.448,23.718 228.006,23.618 228.110 C 23.517 228.215,23.387 228.795,23.328 229.400 C 23.268 230.005,23.126 231.063,23.010 231.750 C 22.895 232.438,22.705 233.563,22.590 234.250 C 22.474 234.938,22.332 235.995,22.272 236.600 C 22.213 237.205,22.083 237.785,21.982 237.890 C 21.882 237.994,21.800 238.552,21.800 239.128 C 21.800 239.705,21.710 240.232,21.600 240.300 C 21.490 240.368,21.400 240.908,21.400 241.500 C 21.400 242.092,21.310 242.632,21.200 242.700 C 21.090 242.768,21.000 243.308,21.000 243.900 C 21.000 244.492,20.910 245.032,20.800 245.100 C 20.690 245.168,20.600 245.708,20.600 246.300 C 20.600 246.892,20.510 247.432,20.400 247.500 C 20.290 247.568,20.200 248.108,20.200 248.700 C 20.200 249.292,20.110 249.832,20.000 249.900 C 19.890 249.968,19.800 250.553,19.800 251.200 C 19.800 251.847,19.710 252.432,19.600 252.500 C 19.490 252.568,19.400 253.108,19.400 253.700 C 19.400 254.292,19.310 254.832,19.200 254.900 C 19.090 254.968,19.000 255.495,19.000 256.072 C 19.000 256.648,18.918 257.206,18.818 257.310 C 18.717 257.415,18.587 257.995,18.528 258.600 C 18.468 259.205,18.321 260.285,18.200 261.000 C 18.079 261.715,17.932 262.795,17.872 263.400 C 17.813 264.005,17.683 264.585,17.582 264.690 C 17.482 264.794,17.400 265.352,17.400 265.928 C 17.400 266.505,17.310 267.032,17.200 267.100 C 17.090 267.168,17.000 267.708,17.000 268.300 C 17.000 268.892,16.910 269.432,16.800 269.500 C 16.690 269.568,16.600 270.108,16.600 270.700 C 16.600 271.292,16.510 271.832,16.400 271.900 C 16.290 271.968,16.200 272.508,16.200 273.100 C 16.200 273.692,16.110 274.232,16.000 274.300 C 15.890 274.368,15.800 274.908,15.800 275.500 C 15.800 276.092,15.710 276.632,15.600 276.700 C 15.490 276.768,15.400 277.353,15.400 278.000 C 15.400 278.647,15.310 279.232,15.200 279.300 C 15.090 279.368,15.000 279.908,15.000 280.500 C 15.000 281.092,14.910 281.632,14.800 281.700 C 14.690 281.768,14.600 282.295,14.600 282.872 C 14.600 283.448,14.518 284.006,14.418 284.110 C 14.317 284.215,14.187 284.795,14.128 285.400 C 14.068 286.005,13.926 287.063,13.810 287.750 C 13.695 288.438,13.505 289.563,13.390 290.250 C 13.274 290.938,13.132 291.995,13.072 292.600 C 13.013 293.205,12.883 293.786,12.782 293.890 C 12.682 293.995,12.600 294.552,12.600 295.128 C 12.600 295.705,12.510 296.232,12.400 296.300 C 12.290 296.368,12.200 296.908,12.200 297.500 C 12.200 298.092,12.110 298.632,12.000 298.700 C 11.890 298.768,11.800 299.308,11.800 299.900 C 11.800 300.492,11.710 301.032,11.600 301.100 C 11.490 301.168,11.400 301.708,11.400 302.300 C 11.400 302.892,11.310 303.432,11.200 303.500 C 11.090 303.568,11.000 304.153,11.000 304.800 C 11.000 305.447,10.910 306.032,10.800 306.100 C 10.690 306.168,10.600 306.708,10.600 307.300 C 10.600 307.892,10.510 308.432,10.400 308.500 C 10.290 308.568,10.200 309.095,10.200 309.672 C 10.200 310.248,10.118 310.805,10.018 310.910 C 9.917 311.014,9.787 311.595,9.728 312.200 C 9.668 312.805,9.526 313.863,9.410 314.550 C 9.295 315.238,9.105 316.363,8.990 317.050 C 8.874 317.738,8.732 318.795,8.672 319.400 C 8.613 320.005,8.483 320.586,8.382 320.690 C 8.282 320.795,8.200 321.352,8.200 321.928 C 8.200 322.505,8.110 323.032,8.000 323.100 C 7.890 323.168,7.800 323.708,7.800 324.300 C 7.800 324.892,7.710 325.432,7.600 325.500 C 7.490 325.568,7.400 326.108,7.400 326.700 C 7.400 327.292,7.310 327.832,7.200 327.900 C 7.090 327.968,7.000 328.508,7.000 329.100 C 7.000 329.692,6.910 330.232,6.800 330.300 C 6.690 330.368,6.600 330.953,6.600 331.600 C 6.600 332.247,6.510 332.832,6.400 332.900 C 6.290 332.968,6.200 333.508,6.200 334.100 C 6.200 334.692,6.110 335.232,6.000 335.300 C 5.890 335.368,5.800 335.895,5.800 336.472 C 5.800 337.048,5.718 337.605,5.618 337.710 C 5.517 337.814,5.387 338.395,5.328 339.000 C 5.268 339.605,5.126 340.663,5.010 341.350 C 4.895 342.038,4.705 343.163,4.590 343.850 C 4.474 344.538,4.332 345.595,4.272 346.200 C 4.213 346.805,4.083 347.386,3.982 347.490 C 3.882 347.595,3.800 348.152,3.800 348.728 C 3.800 349.305,3.710 349.832,3.600 349.900 C 3.490 349.968,3.400 350.508,3.400 351.100 C 3.400 351.692,3.310 352.232,3.200 352.300 C 3.090 352.368,3.000 352.908,3.000 353.500 C 3.000 354.092,2.910 354.632,2.800 354.700 C 2.690 354.768,2.600 355.308,2.600 355.900 C 2.600 356.492,2.510 357.032,2.400 357.100 C 2.290 357.168,2.200 357.708,2.200 358.300 C 2.200 358.892,2.110 359.432,2.000 359.500 C 1.890 359.568,1.800 360.153,1.800 360.800 C 1.800 361.447,1.710 362.032,1.600 362.100 C 1.490 362.168,1.400 362.695,1.400 363.272 C 1.400 363.848,1.318 364.405,1.218 364.510 C 1.013 364.723,0.803 366.440,0.741 368.400 L 0.700 369.700 30.135 369.751 C 63.417 369.808,60.200 369.985,60.200 368.098 C 60.200 367.507,60.290 366.968,60.400 366.900 C 60.510 366.832,60.600 366.247,60.600 365.600 C 60.600 364.953,60.690 364.368,60.800 364.300 C 60.910 364.232,61.000 363.660,61.000 363.028 C 61.000 362.397,61.082 361.795,61.183 361.690 C 61.284 361.586,61.416 360.960,61.477 360.300 C 61.725 357.624,61.828 356.882,62.001 356.500 C 62.100 356.280,62.233 355.560,62.295 354.900 C 62.357 354.240,62.459 353.160,62.521 352.500 C 62.583 351.840,62.716 351.214,62.817 351.110 C 62.918 351.005,63.000 350.403,63.000 349.772 C 63.000 349.140,63.090 348.568,63.200 348.500 C 63.310 348.432,63.400 347.847,63.400 347.200 C 63.400 346.553,63.490 345.968,63.600 345.900 C 63.710 345.832,63.800 345.260,63.800 344.628 C 63.800 343.997,63.882 343.395,63.983 343.290 C 64.084 343.186,64.216 342.560,64.277 341.900 C 64.525 339.224,64.628 338.482,64.801 338.100 C 64.900 337.880,65.030 337.205,65.088 336.600 C 65.382 333.554,65.449 333.086,65.618 332.910 C 65.718 332.805,65.800 332.158,65.800 331.472 C 65.800 330.785,65.890 330.168,66.000 330.100 C 66.110 330.032,66.200 329.447,66.200 328.800 C 66.200 328.153,66.290 327.568,66.400 327.500 C 66.510 327.432,66.600 326.860,66.600 326.228 C 66.600 325.597,66.682 324.995,66.783 324.890 C 66.884 324.786,67.016 324.160,67.077 323.500 C 67.325 320.824,67.428 320.082,67.601 319.700 C 67.700 319.480,67.831 318.783,67.891 318.150 C 68.166 315.249,68.247 314.688,68.418 314.510 C 68.518 314.405,68.600 313.758,68.600 313.072 C 68.600 312.385,68.690 311.768,68.800 311.700 C 68.910 311.632,69.000 311.047,69.000 310.400 C 69.000 309.753,69.090 309.168,69.200 309.100 C 69.310 309.032,69.400 308.447,69.400 307.800 C 69.400 307.153,69.490 306.568,69.600 306.500 C 69.710 306.432,69.800 305.847,69.800 305.200 C 69.800 304.553,69.890 303.968,70.000 303.900 C 70.110 303.832,70.200 303.260,70.200 302.628 C 70.200 301.997,70.282 301.395,70.383 301.290 C 70.484 301.186,70.617 300.560,70.679 299.900 C 70.964 296.875,71.047 296.288,71.218 296.110 C 71.318 296.005,71.400 295.713,71.400 295.460 L 71.400 295.000 100.181 295.000 L 128.961 295.000 129.086 296.050 C 129.155 296.627,129.261 297.640,129.323 298.300 C 129.384 298.960,129.516 299.586,129.617 299.690 C 129.718 299.795,129.800 300.397,129.800 301.028 C 129.800 301.660,129.890 302.232,130.000 302.300 C 130.110 302.368,130.200 302.953,130.200 303.600 C 130.200 304.247,130.290 304.832,130.400 304.900 C 130.510 304.968,130.600 305.540,130.600 306.172 C 130.600 306.803,130.682 307.405,130.783 307.510 C 130.884 307.614,131.017 308.240,131.079 308.900 C 131.141 309.560,131.243 310.640,131.305 311.300 C 131.367 311.960,131.500 312.680,131.599 312.900 C 131.772 313.282,131.875 314.024,132.123 316.700 C 132.184 317.360,132.316 317.986,132.417 318.090 C 132.518 318.195,132.600 318.797,132.600 319.428 C 132.600 320.060,132.690 320.632,132.800 320.700 C 132.910 320.768,133.000 321.353,133.000 322.000 C 133.000 322.647,133.090 323.232,133.200 323.300 C 133.310 323.368,133.400 323.940,133.400 324.572 C 133.400 325.203,133.482 325.805,133.583 325.910 C 133.684 326.014,133.817 326.640,133.879 327.300 C 133.941 327.960,134.043 329.040,134.105 329.700 C 134.167 330.360,134.300 331.080,134.399 331.300 C 134.572 331.682,134.675 332.424,134.923 335.100 C 134.984 335.760,135.116 336.386,135.217 336.490 C 135.318 336.595,135.400 337.197,135.400 337.828 C 135.400 338.460,135.490 339.032,135.600 339.100 C 135.710 339.168,135.800 339.753,135.800 340.400 C 135.800 341.047,135.890 341.632,136.000 341.700 C 136.110 341.768,136.200 342.353,136.200 343.000 C 136.200 343.647,136.290 344.232,136.400 344.300 C 136.510 344.368,136.600 344.953,136.600 345.600 C 136.600 346.247,136.690 346.832,136.800 346.900 C 136.910 346.968,137.000 347.585,137.000 348.272 C 137.000 348.958,137.082 349.605,137.182 349.710 C 137.353 349.888,137.434 350.449,137.709 353.350 C 137.769 353.983,137.900 354.680,137.999 354.900 C 138.172 355.282,138.275 356.024,138.523 358.700 C 138.584 359.360,138.716 359.986,138.817 360.090 C 138.918 360.195,139.000 360.797,139.000 361.428 C 139.000 362.060,139.090 362.632,139.200 362.700 C 139.310 362.768,139.400 363.353,139.400 364.000 C 139.400 364.647,139.490 365.232,139.600 365.300 C 139.710 365.368,139.800 365.953,139.800 366.600 C 139.800 367.247,139.890 367.832,140.000 367.900 C 140.110 367.968,140.200 368.315,140.200 368.672 C 140.200 369.874,138.199 369.800,170.726 369.800 C 203.207 369.800,201.731 369.847,201.280 368.824 C 201.202 368.646,201.062 367.983,200.969 367.350 C 200.876 366.718,200.710 365.660,200.600 365.000 C 200.490 364.340,200.310 363.260,200.200 362.600 C 200.090 361.940,199.910 360.860,199.800 360.200 C 199.690 359.540,199.505 358.438,199.390 357.750 C 199.274 357.063,199.132 356.005,199.072 355.400 C 199.013 354.795,198.883 354.214,198.782 354.110 C 198.682 354.005,198.600 353.448,198.600 352.872 C 198.600 352.295,198.510 351.768,198.400 351.700 C 198.290 351.632,198.200 351.092,198.200 350.500 C 198.200 349.908,198.110 349.368,198.000 349.300 C 197.890 349.232,197.800 348.692,197.800 348.100 C 197.800 347.508,197.710 346.968,197.600 346.900 C 197.490 346.832,197.400 346.292,197.400 345.700 C 197.400 345.108,197.310 344.568,197.200 344.500 C 197.090 344.432,197.000 343.892,197.000 343.300 C 197.000 342.708,196.910 342.168,196.800 342.100 C 196.690 342.032,196.600 341.492,196.600 340.900 C 196.600 340.308,196.510 339.768,196.400 339.700 C 196.290 339.632,196.200 339.092,196.200 338.500 C 196.200 337.908,196.110 337.368,196.000 337.300 C 195.890 337.232,195.800 336.647,195.800 336.000 C 195.800 335.353,195.710 334.768,195.600 334.700 C 195.490 334.632,195.400 334.092,195.400 333.500 C 195.400 332.908,195.310 332.368,195.200 332.300 C 195.090 332.232,195.000 331.692,195.000 331.100 C 195.000 330.508,194.910 329.968,194.800 329.900 C 194.690 329.832,194.600 329.292,194.600 328.700 C 194.600 328.108,194.510 327.568,194.400 327.500 C 194.290 327.432,194.200 326.892,194.200 326.300 C 194.200 325.708,194.110 325.168,194.000 325.100 C 193.890 325.032,193.800 324.492,193.800 323.900 C 193.800 323.308,193.710 322.768,193.600 322.700 C 193.490 322.632,193.400 322.092,193.400 321.500 C 193.400 320.908,193.310 320.368,193.200 320.300 C 193.090 320.232,193.000 319.692,193.000 319.100 C 193.000 318.508,192.910 317.968,192.800 317.900 C 192.690 317.832,192.600 317.292,192.600 316.700 C 192.600 316.108,192.510 315.568,192.400 315.500 C 192.290 315.432,192.200 314.892,192.200 314.300 C 192.200 313.708,192.110 313.168,192.000 313.100 C 191.890 313.032,191.800 312.492,191.800 311.900 C 191.800 311.308,191.710 310.768,191.600 310.700 C 191.490 310.632,191.400 310.092,191.400 309.500 C 191.400 308.908,191.310 308.368,191.200 308.300 C 191.090 308.232,191.000 307.692,191.000 307.100 C 191.000 306.508,190.910 305.968,190.800 305.900 C 190.690 305.832,190.600 305.305,190.600 304.728 C 190.600 304.152,190.518 303.595,190.418 303.490 C 190.317 303.386,190.187 302.805,190.128 302.200 C 190.068 301.595,189.926 300.538,189.810 299.850 C 189.695 299.163,189.510 298.060,189.400 297.400 C 189.290 296.740,189.110 295.660,189.000 295.000 C 188.890 294.340,188.710 293.260,188.600 292.600 C 188.490 291.940,188.310 290.860,188.200 290.200 C 188.090 289.540,187.905 288.438,187.790 287.750 C 187.674 287.063,187.532 286.005,187.472 285.400 C 187.413 284.795,187.283 284.214,187.182 284.110 C 187.082 284.005,187.000 283.448,187.000 282.872 C 187.000 282.295,186.910 281.768,186.800 281.700 C 186.690 281.632,186.600 281.092,186.600 280.500 C 186.600 279.908,186.510 279.368,186.400 279.300 C 186.290 279.232,186.200 278.692,186.200 278.100 C 186.200 277.508,186.110 276.968,186.000 276.900 C 185.890 276.832,185.800 276.292,185.800 275.700 C 185.800 275.108,185.710 274.568,185.600 274.500 C 185.490 274.432,185.400 273.892,185.400 273.300 C 185.400 272.708,185.310 272.168,185.200 272.100 C 185.090 272.032,185.000 271.492,185.000 270.900 C 185.000 270.308,184.910 269.768,184.800 269.700 C 184.690 269.632,184.600 269.047,184.600 268.400 C 184.600 267.753,184.510 267.168,184.400 267.100 C 184.290 267.032,184.200 266.492,184.200 265.900 C 184.200 265.308,184.110 264.768,184.000 264.700 C 183.890 264.632,183.800 264.092,183.800 263.500 C 183.800 262.908,183.710 262.368,183.600 262.300 C 183.490 262.232,183.400 261.692,183.400 261.100 C 183.400 260.508,183.310 259.968,183.200 259.900 C 183.090 259.832,183.000 259.292,183.000 258.700 C 183.000 258.108,182.910 257.568,182.800 257.500 C 182.690 257.432,182.600 256.892,182.600 256.300 C 182.600 255.708,182.510 255.168,182.400 255.100 C 182.290 255.032,182.200 254.492,182.200 253.900 C 182.200 253.308,182.110 252.768,182.000 252.700 C 181.890 252.632,181.800 252.092,181.800 251.500 C 181.800 250.908,181.710 250.368,181.600 250.300 C 181.490 250.232,181.400 249.692,181.400 249.100 C 181.400 248.508,181.310 247.968,181.200 247.900 C 181.090 247.832,181.000 247.292,181.000 246.700 C 181.000 246.108,180.910 245.568,180.800 245.500 C 180.690 245.432,180.600 244.892,180.600 244.300 C 180.600 243.708,180.510 243.168,180.400 243.100 C 180.290 243.032,180.200 242.492,180.200 241.900 C 180.200 241.308,180.110 240.768,180.000 240.700 C 179.890 240.632,179.800 240.092,179.800 239.500 C 179.800 238.908,179.710 238.368,179.600 238.300 C 179.490 238.232,179.400 237.705,179.400 237.128 C 179.400 236.552,179.318 235.994,179.218 235.890 C 179.117 235.785,178.987 235.205,178.928 234.600 C 178.868 233.995,178.726 232.938,178.610 232.250 C 178.495 231.563,178.310 230.460,178.200 229.800 C 178.090 229.140,177.910 228.060,177.800 227.400 C 177.690 226.740,177.510 225.660,177.400 225.000 C 177.290 224.340,177.110 223.260,177.000 222.600 C 176.890 221.940,176.705 220.838,176.590 220.150 C 176.474 219.463,176.332 218.405,176.272 217.800 C 176.213 217.195,176.083 216.615,175.982 216.510 C 175.882 216.406,175.800 215.848,175.800 215.272 C 175.800 214.695,175.710 214.168,175.600 214.100 C 175.490 214.032,175.400 213.492,175.400 212.900 C 175.400 212.308,175.310 211.768,175.200 211.700 C 175.090 211.632,175.000 211.092,175.000 210.500 C 175.000 209.908,174.910 209.368,174.800 209.300 C 174.690 209.232,174.600 208.692,174.600 208.100 C 174.600 207.508,174.510 206.968,174.400 206.900 C 174.290 206.832,174.200 206.292,174.200 205.700 C 174.200 205.108,174.110 204.568,174.000 204.500 C 173.890 204.432,173.800 203.892,173.800 203.300 C 173.800 202.708,173.710 202.168,173.600 202.100 C 173.490 202.032,173.400 201.447,173.400 200.800 C 173.400 200.153,173.310 199.568,173.200 199.500 C 173.090 199.432,173.000 198.892,173.000 198.300 C 173.000 197.708,172.910 197.168,172.800 197.100 C 172.690 197.032,172.600 196.492,172.600 195.900 C 172.600 195.308,172.510 194.768,172.400 194.700 C 172.290 194.632,172.200 194.092,172.200 193.500 C 172.200 192.908,172.110 192.368,172.000 192.300 C 171.890 192.232,171.800 191.692,171.800 191.100 C 171.800 190.508,171.710 189.968,171.600 189.900 C 171.490 189.832,171.400 189.292,171.400 188.700 C 171.400 188.108,171.310 187.568,171.200 187.500 C 171.090 187.432,171.000 186.892,171.000 186.300 C 171.000 185.708,170.910 185.168,170.800 185.100 C 170.690 185.032,170.600 184.492,170.600 183.900 C 170.600 183.308,170.510 182.768,170.400 182.700 C 170.290 182.632,170.200 182.092,170.200 181.500 C 170.200 180.908,170.110 180.368,170.000 180.300 C 169.890 180.232,169.800 179.692,169.800 179.100 C 169.800 178.508,169.710 177.968,169.600 177.900 C 169.490 177.832,169.400 177.292,169.400 176.700 C 169.400 176.108,169.310 175.568,169.200 175.500 C 169.090 175.432,169.000 174.892,169.000 174.300 C 169.000 173.708,168.910 173.168,168.800 173.100 C 168.690 173.032,168.600 172.492,168.600 171.900 C 168.600 171.308,168.510 170.768,168.400 170.700 C 168.290 170.632,168.200 170.092,168.200 169.500 C 168.200 168.908,168.110 168.368,168.000 168.300 C 167.890 168.232,167.800 167.705,167.800 167.128 C 167.800 166.552,167.718 165.994,167.618 165.890 C 167.517 165.785,167.387 165.205,167.328 164.600 C 167.268 163.995,167.126 162.938,167.010 162.250 C 166.895 161.563,166.710 160.460,166.600 159.800 C 166.490 159.140,166.310 158.060,166.200 157.400 C 166.090 156.740,165.910 155.660,165.800 155.000 C 165.690 154.340,165.510 153.260,165.400 152.600 C 165.290 151.940,165.105 150.838,164.990 150.150 C 164.874 149.463,164.732 148.405,164.672 147.800 C 164.613 147.195,164.483 146.614,164.382 146.510 C 164.282 146.405,164.200 145.848,164.200 145.272 C 164.200 144.695,164.110 144.168,164.000 144.100 C 163.890 144.032,163.800 143.492,163.800 142.900 C 163.800 142.308,163.710 141.768,163.600 141.700 C 163.490 141.632,163.400 141.092,163.400 140.500 C 163.400 139.908,163.310 139.368,163.200 139.300 C 163.090 139.232,163.000 138.692,163.000 138.100 C 163.000 137.508,162.910 136.968,162.800 136.900 C 162.690 136.832,162.600 136.292,162.600 135.700 C 162.600 135.108,162.510 134.568,162.400 134.500 C 162.290 134.432,162.200 133.892,162.200 133.300 C 162.200 132.708,162.110 132.168,162.000 132.100 C 161.890 132.032,161.800 131.447,161.800 130.800 C 161.800 130.153,161.710 129.568,161.600 129.500 C 161.490 129.432,161.400 128.892,161.400 128.300 C 161.400 127.708,161.310 127.168,161.200 127.100 C 161.090 127.032,161.000 126.492,161.000 125.900 C 161.000 125.308,160.910 124.768,160.800 124.700 C 160.690 124.632,160.600 124.092,160.600 123.500 C 160.600 122.908,160.510 122.368,160.400 122.300 C 160.290 122.232,160.200 121.692,160.200 121.100 C 160.200 120.508,160.110 119.968,160.000 119.900 C 159.890 119.832,159.800 119.292,159.800 118.700 C 159.800 118.108,159.710 117.568,159.600 117.500 C 159.490 117.432,159.400 116.892,159.400 116.300 C 159.400 115.708,159.310 115.168,159.200 115.100 C 159.090 115.032,159.000 114.492,159.000 113.900 C 159.000 113.308,158.910 112.768,158.800 112.700 C 158.690 112.632,158.600 112.092,158.600 111.500 C 158.600 110.908,158.510 110.368,158.400 110.300 C 158.290 110.232,158.200 109.692,158.200 109.100 C 158.200 108.508,158.110 107.968,158.000 107.900 C 157.890 107.832,157.800 107.292,157.800 106.700 C 157.800 106.108,157.710 105.568,157.600 105.500 C 157.490 105.432,157.400 104.892,157.400 104.300 C 157.400 103.708,157.310 103.168,157.200 103.100 C 157.090 103.032,157.000 102.492,157.000 101.900 C 157.000 101.308,156.910 100.768,156.800 100.700 C 156.690 100.632,156.600 100.105,156.600 99.528 C 156.600 98.952,156.518 98.394,156.418 98.290 C 156.317 98.185,156.187 97.605,156.128 97.000 C 156.068 96.395,155.926 95.338,155.810 94.650 C 155.695 93.963,155.510 92.860,155.400 92.200 C 155.290 91.540,155.110 90.460,155.000 89.800 C 154.890 89.140,154.710 88.060,154.600 87.400 C 154.490 86.740,154.310 85.660,154.200 85.000 C 154.090 84.340,153.905 83.238,153.790 82.550 C 153.674 81.863,153.532 80.805,153.472 80.200 C 153.413 79.595,153.283 79.015,153.182 78.910 C 153.082 78.806,153.000 78.248,153.000 77.672 C 153.000 77.095,152.910 76.568,152.800 76.500 C 152.690 76.432,152.600 75.892,152.600 75.300 C 152.600 74.708,152.510 74.168,152.400 74.100 C 152.290 74.032,152.200 73.492,152.200 72.900 C 152.200 72.308,152.110 71.768,152.000 71.700 C 151.890 71.632,151.800 71.092,151.800 70.500 C 151.800 69.908,151.710 69.368,151.600 69.300 C 151.490 69.232,151.400 68.692,151.400 68.100 C 151.400 67.508,151.310 66.968,151.200 66.900 C 151.090 66.832,151.000 66.292,151.000 65.700 C 151.000 65.108,150.910 64.568,150.800 64.500 C 150.690 64.432,150.600 63.847,150.600 63.200 C 150.600 62.553,150.510 61.968,150.400 61.900 C 150.290 61.832,150.200 61.292,150.200 60.700 C 150.200 60.108,150.110 59.568,150.000 59.500 C 149.890 59.432,149.800 58.892,149.800 58.300 C 149.800 57.708,149.710 57.168,149.600 57.100 C 149.490 57.032,149.400 56.492,149.400 55.900 C 149.400 55.308,149.310 54.768,149.200 54.700 C 149.090 54.632,149.000 54.092,149.000 53.500 C 149.000 52.908,148.910 52.368,148.800 52.300 C 148.690 52.232,148.600 51.692,148.600 51.100 C 148.600 50.508,148.510 49.968,148.400 49.900 C 148.290 49.832,148.200 49.292,148.200 48.700 C 148.200 48.108,148.110 47.568,148.000 47.500 C 147.890 47.432,147.800 46.892,147.800 46.300 C 147.800 45.708,147.710 45.168,147.600 45.100 C 147.490 45.032,147.400 44.492,147.400 43.900 C 147.400 43.308,147.310 42.768,147.200 42.700 C 147.090 42.632,147.000 42.092,147.000 41.500 C 147.000 40.908,146.910 40.368,146.800 40.300 C 146.690 40.232,146.600 39.692,146.600 39.100 C 146.600 38.508,146.510 37.968,146.400 37.900 C 146.290 37.832,146.200 37.292,146.200 36.700 C 146.200 36.108,146.110 35.568,146.000 35.500 C 145.890 35.432,145.800 34.892,145.800 34.300 C 145.800 33.708,145.710 33.168,145.600 33.100 C 145.490 33.032,145.400 32.505,145.400 31.928 C 145.400 31.352,145.316 30.794,145.214 30.690 C 145.112 30.585,145.000 30.185,144.964 29.800 L 144.900 29.100 100.684 29.050 C 76.365 29.022,56.407 29.059,56.334 29.133 M101.400 92.288 C 101.400 92.997,101.490 93.632,101.600 93.700 C 101.710 93.768,101.800 94.398,101.800 95.100 C 101.800 95.802,101.890 96.432,102.000 96.500 C 102.110 96.568,102.200 97.198,102.200 97.900 C 102.200 98.602,102.290 99.232,102.400 99.300 C 102.510 99.368,102.600 99.998,102.600 100.700 C 102.600 101.402,102.690 102.032,102.800 102.100 C 102.910 102.168,103.000 102.798,103.000 103.500 C 103.000 104.202,103.090 104.832,103.200 104.900 C 103.310 104.968,103.400 105.598,103.400 106.300 C 103.400 107.002,103.490 107.632,103.600 107.700 C 103.710 107.768,103.800 108.353,103.800 109.000 C 103.800 109.647,103.890 110.232,104.000 110.300 C 104.110 110.368,104.200 110.998,104.200 111.700 C 104.200 112.402,104.290 113.032,104.400 113.100 C 104.510 113.168,104.600 113.798,104.600 114.500 C 104.600 115.202,104.690 115.832,104.800 115.900 C 104.910 115.968,105.000 116.598,105.000 117.300 C 105.000 118.002,105.090 118.632,105.200 118.700 C 105.310 118.768,105.400 119.398,105.400 120.100 C 105.400 120.802,105.490 121.432,105.600 121.500 C 105.710 121.568,105.800 122.198,105.800 122.900 C 105.800 123.602,105.890 124.232,106.000 124.300 C 106.110 124.368,106.200 124.998,106.200 125.700 C 106.200 126.402,106.290 127.032,106.400 127.100 C 106.510 127.168,106.600 127.798,106.600 128.500 C 106.600 129.202,106.690 129.832,106.800 129.900 C 106.910 129.968,107.000 130.598,107.000 131.300 C 107.000 132.002,107.090 132.632,107.200 132.700 C 107.310 132.768,107.400 133.398,107.400 134.100 C 107.400 134.802,107.490 135.432,107.600 135.500 C 107.710 135.568,107.800 136.198,107.800 136.900 C 107.800 137.602,107.890 138.232,108.000 138.300 C 108.110 138.368,108.200 138.985,108.200 139.672 C 108.200 140.358,108.282 141.006,108.383 141.110 C 108.484 141.215,108.615 141.840,108.675 142.500 C 108.735 143.160,108.878 144.353,108.992 145.150 C 109.106 145.947,109.292 147.253,109.404 148.050 C 109.516 148.847,109.696 150.108,109.804 150.850 C 109.912 151.593,110.092 152.853,110.204 153.650 C 110.316 154.447,110.496 155.708,110.604 156.450 C 110.712 157.192,110.892 158.453,111.004 159.250 C 111.116 160.048,111.296 161.308,111.404 162.050 C 111.512 162.793,111.688 164.008,111.796 164.750 C 111.904 165.493,112.084 166.753,112.196 167.550 C 112.308 168.347,112.494 169.653,112.608 170.450 C 112.722 171.248,112.865 172.440,112.925 173.100 C 112.985 173.760,113.116 174.386,113.217 174.490 C 113.318 174.595,113.400 175.242,113.400 175.928 C 113.400 176.615,113.490 177.232,113.600 177.300 C 113.710 177.368,113.800 177.998,113.800 178.700 C 113.800 179.402,113.890 180.032,114.000 180.100 C 114.110 180.168,114.200 180.798,114.200 181.500 C 114.200 182.202,114.290 182.832,114.400 182.900 C 114.510 182.968,114.600 183.598,114.600 184.300 C 114.600 185.002,114.690 185.632,114.800 185.700 C 114.910 185.768,115.000 186.398,115.000 187.100 C 115.000 187.802,115.090 188.432,115.200 188.500 C 115.310 188.568,115.400 189.198,115.400 189.900 C 115.400 190.602,115.490 191.232,115.600 191.300 C 115.710 191.368,115.800 191.998,115.800 192.700 C 115.800 193.402,115.890 194.032,116.000 194.100 C 116.110 194.168,116.200 194.798,116.200 195.500 C 116.200 196.202,116.290 196.832,116.400 196.900 C 116.510 196.968,116.600 197.598,116.600 198.300 C 116.600 199.002,116.690 199.632,116.800 199.700 C 116.910 199.768,117.000 200.398,117.000 201.100 C 117.000 201.802,117.090 202.432,117.200 202.500 C 117.310 202.568,117.400 203.198,117.400 203.900 C 117.400 204.602,117.490 205.232,117.600 205.300 C 117.710 205.368,117.800 205.998,117.800 206.700 C 117.800 207.402,117.890 208.032,118.000 208.100 C 118.110 208.168,118.200 208.798,118.200 209.500 C 118.200 210.202,118.290 210.832,118.400 210.900 C 118.510 210.968,118.600 211.598,118.600 212.300 C 118.600 213.002,118.690 213.632,118.800 213.700 C 118.910 213.768,119.000 214.398,119.000 215.100 C 119.000 215.802,119.090 216.432,119.200 216.500 C 119.310 216.568,119.400 217.198,119.400 217.900 C 119.400 218.602,119.490 219.232,119.600 219.300 C 119.710 219.368,119.800 219.998,119.800 220.700 C 119.800 221.402,119.890 222.032,120.000 222.100 C 120.110 222.168,120.200 222.798,120.200 223.500 C 120.200 224.202,120.290 224.832,120.400 224.900 C 120.510 224.968,120.600 225.598,120.600 226.300 C 120.600 227.002,120.690 227.632,120.800 227.700 C 120.910 227.768,121.000 228.398,121.000 229.100 C 121.000 229.802,121.090 230.432,121.200 230.500 C 121.310 230.568,121.400 231.198,121.400 231.900 C 121.400 232.602,121.490 233.232,121.600 233.300 C 121.710 233.368,121.800 233.998,121.800 234.700 C 121.800 235.402,121.890 236.032,122.000 236.100 C 122.110 236.168,122.200 236.753,122.200 237.400 C 122.200 238.047,122.290 238.632,122.400 238.700 C 122.510 238.768,122.600 239.385,122.600 240.072 C 122.600 240.776,122.705 241.425,122.840 241.560 C 123.027 241.747,118.004 241.800,100.240 241.800 L 77.400 241.800 77.400 241.212 C 77.400 240.888,77.490 240.568,77.600 240.500 C 77.710 240.432,77.800 239.802,77.800 239.100 C 77.800 238.398,77.890 237.768,78.000 237.700 C 78.110 237.632,78.200 237.002,78.200 236.300 C 78.200 235.598,78.290 234.968,78.400 234.900 C 78.510 234.832,78.600 234.202,78.600 233.500 C 78.600 232.798,78.690 232.168,78.800 232.100 C 78.910 232.032,79.000 231.402,79.000 230.700 C 79.000 229.998,79.090 229.368,79.200 229.300 C 79.310 229.232,79.400 228.602,79.400 227.900 C 79.400 227.198,79.490 226.568,79.600 226.500 C 79.710 226.432,79.800 225.802,79.800 225.100 C 79.800 224.398,79.890 223.768,80.000 223.700 C 80.110 223.632,80.200 223.002,80.200 222.300 C 80.200 221.598,80.290 220.968,80.400 220.900 C 80.510 220.832,80.600 220.202,80.600 219.500 C 80.600 218.798,80.690 218.168,80.800 218.100 C 80.910 218.032,81.000 217.402,81.000 216.700 C 81.000 215.998,81.090 215.368,81.200 215.300 C 81.310 215.232,81.400 214.602,81.400 213.900 C 81.400 213.198,81.490 212.568,81.600 212.500 C 81.710 212.432,81.800 211.802,81.800 211.100 C 81.800 210.398,81.890 209.768,82.000 209.700 C 82.110 209.632,82.200 209.002,82.200 208.300 C 82.200 207.598,82.290 206.968,82.400 206.900 C 82.510 206.832,82.600 206.202,82.600 205.500 C 82.600 204.798,82.690 204.168,82.800 204.100 C 82.910 204.032,83.000 203.402,83.000 202.700 C 83.000 201.998,83.090 201.368,83.200 201.300 C 83.310 201.232,83.400 200.615,83.400 199.928 C 83.400 199.242,83.482 198.595,83.583 198.490 C 83.684 198.386,83.815 197.760,83.875 197.100 C 83.977 195.984,84.083 195.171,84.607 191.500 C 84.717 190.730,84.897 189.470,85.007 188.700 C 85.117 187.930,85.296 186.692,85.404 185.950 C 85.512 185.208,85.690 183.970,85.800 183.200 C 85.910 182.430,86.090 181.170,86.200 180.400 C 86.310 179.630,86.488 178.393,86.596 177.650 C 86.704 176.908,86.884 175.648,86.996 174.850 C 87.108 174.053,87.288 172.793,87.396 172.050 C 87.504 171.308,87.684 170.048,87.796 169.250 C 87.908 168.453,88.094 167.148,88.208 166.350 C 88.322 165.553,88.465 164.360,88.525 163.700 C 88.585 163.040,88.716 162.414,88.817 162.310 C 88.918 162.205,89.000 161.558,89.000 160.872 C 89.000 160.185,89.090 159.568,89.200 159.500 C 89.310 159.432,89.400 158.802,89.400 158.100 C 89.400 157.398,89.490 156.768,89.600 156.700 C 89.710 156.632,89.800 156.002,89.800 155.300 C 89.800 154.598,89.890 153.968,90.000 153.900 C 90.110 153.832,90.200 153.202,90.200 152.500 C 90.200 151.798,90.290 151.168,90.400 151.100 C 90.510 151.032,90.600 150.402,90.600 149.700 C 90.600 148.998,90.690 148.368,90.800 148.300 C 90.910 148.232,91.000 147.602,91.000 146.900 C 91.000 146.198,91.090 145.568,91.200 145.500 C 91.310 145.432,91.400 144.802,91.400 144.100 C 91.400 143.398,91.490 142.768,91.600 142.700 C 91.710 142.632,91.800 142.002,91.800 141.300 C 91.800 140.598,91.890 139.968,92.000 139.900 C 92.110 139.832,92.200 139.202,92.200 138.500 C 92.200 137.798,92.290 137.168,92.400 137.100 C 92.510 137.032,92.600 136.402,92.600 135.700 C 92.600 134.998,92.690 134.368,92.800 134.300 C 92.910 134.232,93.000 133.647,93.000 133.000 C 93.000 132.353,93.090 131.768,93.200 131.700 C 93.310 131.632,93.400 131.002,93.400 130.300 C 93.400 129.598,93.490 128.968,93.600 128.900 C 93.710 128.832,93.800 128.202,93.800 127.500 C 93.800 126.798,93.890 126.168,94.000 126.100 C 94.110 126.032,94.200 125.402,94.200 124.700 C 94.200 123.998,94.290 123.368,94.400 123.300 C 94.510 123.232,94.600 122.602,94.600 121.900 C 94.600 121.198,94.690 120.568,94.800 120.500 C 94.910 120.432,95.000 119.802,95.000 119.100 C 95.000 118.398,95.090 117.768,95.200 117.700 C 95.310 117.632,95.400 117.002,95.400 116.300 C 95.400 115.598,95.490 114.968,95.600 114.900 C 95.710 114.832,95.800 114.202,95.800 113.500 C 95.800 112.798,95.890 112.168,96.000 112.100 C 96.110 112.032,96.200 111.402,96.200 110.700 C 96.200 109.998,96.290 109.368,96.400 109.300 C 96.510 109.232,96.600 108.602,96.600 107.900 C 96.600 107.198,96.690 106.568,96.800 106.500 C 96.910 106.432,97.000 105.802,97.000 105.100 C 97.000 104.398,97.090 103.768,97.200 103.700 C 97.310 103.632,97.400 103.002,97.400 102.300 C 97.400 101.598,97.490 100.968,97.600 100.900 C 97.710 100.832,97.800 100.202,97.800 99.500 C 97.800 98.798,97.890 98.168,98.000 98.100 C 98.110 98.032,98.200 97.402,98.200 96.700 C 98.200 95.998,98.290 95.368,98.400 95.300 C 98.510 95.232,98.600 94.602,98.600 93.900 C 98.600 93.198,98.690 92.568,98.800 92.500 C 98.910 92.432,99.000 92.067,99.000 91.688 L 99.000 91.000 100.200 91.000 L 101.400 91.000 101.400 92.288 " stroke="none" fill="#1d1c1b" fill-rule="evenodd"></path><path id="path4" d="" stroke="none" fill="#aa552a" fill-rule="evenodd"></path></g></svg>