<?xml version="1.0" standalone="no"?>
<!DOCTYPE svg PUBLIC "-//W3C//DTD SVG 20010904//EN"
 "http://www.w3.org/TR/2001/REC-SVG-20010904/DTD/svg10.dtd">
<svg version="1.0" xmlns="http://www.w3.org/2000/svg"
 width="1000.000000pt" height="1000.000000pt" viewBox="0 0 1000.000000 1000.000000"
 preserveAspectRatio="xMidYMid meet">
<metadata>
Created by potrace 1.11, written by Peter Selinger 2001-2013
</metadata>
<g transform="translate(0.000000,1000.000000) scale(0.100000,-0.100000)"
fill="#000000" stroke="none">
<path d="M1420 9260 c-4 -3 -11 -27 -14 -55 -4 -27 -11 -70 -16 -95 -5 -25
-12 -63 -15 -84 -3 -21 -7 -48 -10 -60 -2 -12 -6 -39 -9 -61 -3 -22 -8 -51
-11 -65 -2 -13 -7 -42 -10 -65 -3 -22 -10 -65 -15 -95 -5 -30 -12 -71 -15 -90
-3 -19 -8 -42 -10 -50 -2 -8 -7 -40 -10 -70 -4 -30 -8 -57 -10 -60 -2 -3 -6
-27 -9 -55 -4 -27 -9 -57 -11 -65 -2 -8 -6 -33 -10 -55 -3 -22 -10 -67 -16
-100 -6 -33 -12 -71 -14 -85 -2 -14 -10 -65 -19 -115 -8 -49 -17 -107 -20
-127 -3 -21 -9 -54 -12 -74 -5 -35 -8 -47 -18 -104 -3 -14 -8 -42 -11 -62 -3
-21 -7 -55 -10 -75 -3 -21 -8 -49 -11 -63 -8 -43 -11 -64 -18 -111 -8 -57 -13
-84 -31 -184 -8 -44 -17 -98 -20 -120 -2 -22 -7 -51 -10 -65 -3 -14 -8 -45
-11 -70 -3 -25 -7 -47 -9 -50 -2 -3 -6 -30 -10 -60 -3 -30 -8 -62 -10 -70 -2
-8 -6 -28 -9 -45 -3 -16 -14 -86 -25 -155 -11 -69 -23 -143 -26 -165 -5 -37
-8 -52 -20 -115 -5 -27 -33 -194 -41 -250 -3 -19 -7 -46 -10 -60 -2 -14 -7
-41 -10 -60 -3 -19 -9 -60 -14 -90 -5 -30 -12 -70 -15 -87 -5 -34 -10 -65 -19
-118 -3 -16 -7 -43 -10 -60 -3 -16 -14 -84 -25 -150 -11 -66 -22 -138 -26
-159 -3 -21 -7 -48 -10 -60 -2 -12 -7 -39 -10 -61 -3 -22 -12 -80 -21 -130 -8
-49 -17 -103 -20 -120 -3 -16 -7 -43 -10 -60 -3 -16 -7 -45 -10 -63 -2 -17
-15 -96 -28 -175 -14 -78 -27 -160 -31 -182 -7 -48 -12 -81 -25 -155 -5 -30
-12 -73 -15 -95 -6 -41 -11 -71 -19 -115 -8 -42 -44 -262 -51 -305 -3 -22 -7
-47 -10 -55 -2 -8 -6 -35 -9 -60 -6 -47 -12 -82 -22 -140 -4 -19 -8 -44 -10
-55 -8 -60 -16 -105 -24 -150 -5 -27 -12 -68 -15 -90 -13 -83 -16 -101 -25
-155 -5 -30 -12 -68 -14 -85 -3 -16 -14 -84 -25 -150 -11 -66 -23 -138 -26
-160 -3 -22 -10 -62 -15 -90 -5 -27 -12 -70 -15 -94 -3 -23 -7 -46 -9 -50 -2
-3 -6 -28 -10 -56 -3 -27 -8 -61 -11 -75 -3 -14 -8 -43 -11 -65 -3 -22 -7 -49
-9 -61 -3 -12 -7 -39 -11 -60 -3 -21 -16 -103 -30 -182 -13 -78 -26 -157 -28
-175 -2 -17 -21 -129 -41 -247 -20 -118 -38 -228 -41 -245 -2 -16 -9 -55 -14
-85 -5 -30 -12 -73 -15 -95 -7 -50 -13 -86 -25 -154 -6 -30 -8 -56 -6 -59 7
-7 1452 -5 1463 1 6 4 13 32 17 64 7 57 9 73 20 143 3 19 8 51 10 70 3 19 10
62 15 95 5 33 13 80 16 105 3 25 8 52 10 60 2 8 7 40 10 70 4 30 8 57 10 60 2
3 6 34 10 70 4 36 8 67 10 70 2 3 6 28 9 55 6 42 24 163 41 265 2 14 7 45 10
70 3 25 10 70 15 100 5 30 12 78 16 105 3 28 7 52 9 55 2 3 6 34 10 70 4 36 8
67 10 70 2 3 6 30 10 60 4 30 8 57 10 60 2 3 6 34 10 70 4 36 8 67 10 68 5 5
1446 4 1451 -1 5 -5 11 -35 19 -92 3 -22 8 -51 10 -65 2 -14 6 -41 9 -60 3
-19 8 -51 11 -70 3 -19 7 -48 9 -65 3 -16 10 -61 16 -100 14 -86 16 -95 25
-170 4 -33 9 -62 10 -65 2 -3 6 -29 10 -59 4 -30 9 -63 11 -75 2 -12 6 -41 9
-66 3 -25 8 -56 11 -70 6 -32 11 -66 18 -110 3 -19 14 -93 25 -165 11 -71 23
-152 26 -180 4 -27 8 -57 10 -65 2 -8 8 -51 15 -95 7 -44 13 -87 15 -95 1 -8
8 -54 15 -103 7 -48 18 -87 24 -88 6 0 346 -1 754 -2 l744 -2 -7 55 c-4 30
-10 73 -15 95 -5 22 -14 74 -20 115 -7 41 -14 84 -16 95 -2 11 -7 40 -10 65
-3 25 -8 47 -9 50 -2 3 -7 33 -10 65 -4 33 -9 63 -11 66 -2 4 -6 24 -9 45 -5
35 -9 59 -20 129 -2 11 -31 187 -65 390 -33 204 -62 379 -64 390 -7 37 -16 90
-20 120 -11 76 -48 290 -51 295 -1 3 -5 28 -9 55 -3 28 -8 60 -10 71 -2 12 -7
39 -10 60 -15 91 -26 160 -30 180 -2 12 -12 71 -21 130 -10 60 -19 118 -21
129 -7 33 -13 67 -23 135 -6 36 -13 75 -15 86 -2 12 -7 39 -10 60 -11 69 -14
90 -42 254 -8 52 -17 104 -19 115 -11 73 -46 284 -50 305 -6 36 -34 205 -45
275 -5 33 -12 71 -15 85 -3 14 -8 45 -11 70 -3 25 -7 52 -9 60 -2 8 -6 29 -9
45 -57 350 -81 497 -90 545 -3 14 -8 43 -11 65 -3 22 -12 81 -21 130 -8 50
-17 101 -19 115 -5 29 -4 24 -45 270 -17 102 -33 196 -35 210 -2 14 -11 68
-20 120 -9 52 -18 106 -20 120 -4 26 -42 256 -50 300 -4 27 -34 207 -41 255
-3 17 -10 57 -15 90 -6 33 -13 74 -15 90 -2 17 -6 41 -9 55 -6 31 -25 146 -30
183 -2 16 -6 40 -9 55 -3 15 -8 41 -10 57 -4 26 -28 167 -41 244 -2 13 -8 45
-12 70 -4 25 -8 48 -8 51 -1 3 -5 28 -9 55 -5 28 -19 115 -32 195 -14 80 -27
161 -30 180 -2 19 -7 46 -10 60 -6 33 -11 66 -19 115 -3 22 -14 90 -25 150
-10 61 -22 128 -25 150 -3 22 -14 92 -25 155 -11 63 -22 131 -25 150 -4 19
-12 67 -18 105 l-12 70 -1093 0 c-602 0 -1097 -2 -1102 -5z m1120 -1539 c0 -6
18 -130 25 -171 4 -28 11 -73 20 -140 3 -25 10 -72 15 -105 5 -33 12 -80 15
-105 3 -25 12 -88 20 -140 7 -52 16 -115 20 -140 3 -25 8 -56 10 -70 3 -14 7
-41 9 -60 3 -20 12 -85 20 -145 9 -61 19 -128 22 -150 2 -22 7 -51 9 -65 2
-14 7 -45 10 -70 3 -25 8 -57 11 -72 5 -27 9 -57 19 -143 3 -27 10 -72 15
-100 5 -27 12 -72 15 -100 3 -27 8 -57 10 -65 2 -8 6 -42 10 -75 3 -33 8 -68
11 -77 3 -9 7 -32 8 -50 7 -58 17 -133 21 -148 3 -8 7 -40 10 -70 3 -30 8 -66
10 -80 8 -41 33 -214 40 -270 1 -14 6 -45 10 -70 4 -25 9 -58 11 -73 13 -105
24 -178 30 -212 2 -11 6 -41 9 -66 3 -25 7 -55 9 -66 3 -11 7 -44 11 -74 3
-30 10 -79 15 -109 5 -30 12 -75 15 -100 3 -25 8 -56 10 -70 5 -27 13 -82 21
-145 9 -62 11 -76 18 -131 l7 -51 -573 0 c-315 0 -576 1 -579 3 -4 2 -3 23 1
46 5 24 10 61 14 83 3 22 14 105 26 185 11 80 22 159 25 175 11 83 18 133 41
285 24 159 27 182 39 278 3 24 14 105 25 180 12 76 23 153 26 172 2 19 9 62
14 95 10 70 16 113 25 175 3 25 8 56 10 70 3 14 7 45 10 70 3 25 7 56 10 70 2
14 7 43 10 65 2 22 12 90 20 150 9 61 18 124 20 140 3 17 7 46 9 65 3 19 8 55
11 80 3 25 8 52 10 60 2 8 7 40 10 70 13 108 15 126 25 180 5 30 12 75 15 100
3 25 8 56 10 70 2 14 7 45 10 70 3 25 10 72 15 105 5 33 12 83 15 110 4 28 8
57 10 65 2 8 7 39 10 69 4 30 8 62 10 71 2 9 6 41 10 70 4 29 8 60 10 69 1 9
6 41 10 71 4 30 9 64 11 75 2 11 7 40 10 65 8 68 13 78 37 82 25 4 47 -1 47
-11z"/>
<path d="M5650 5018 l0 -4248 43 -1 c54 0 1347 0 1408 0 l47 1 0 1687 c1 929
1 1734 1 1790 l1 101 663 -1 662 -2 1 -1783 c0 -980 4 -1785 7 -1788 5 -5
1357 -9 1477 -5 13 1 15 477 14 4244 -1 2333 -2 4244 -3 4247 -2 8 -1479 6
-1487 -3 -4 -4 -7 -792 -7 -1752 l0 -1745 -664 0 c-625 0 -663 1 -664 18 0 9
0 797 -1 1750 0 952 -3 1733 -7 1733 -3 1 -340 2 -748 3 l-743 1 0 -4247z"/>
</g>
</svg>
